<mxfile host="app.diagrams.net" modified="2023-04-21T07:48:50.131Z" agent="Mozilla/5.0 (Windows NT 10.0; Win64; x64) AppleWebKit/537.36 (KHTML, like Gecko) Chrome/112.0.0.0 Safari/537.36 Edg/112.0.1722.48" etag="JkqzlATQZBp4K7FfazfI" version="21.2.1" type="github">
  <diagram name="Page-1" id="03018318-947c-dd8e-b7a3-06fadd420f32">
    <mxGraphModel dx="1396" dy="671" grid="1" gridSize="10" guides="1" tooltips="1" connect="1" arrows="1" fold="1" page="1" pageScale="1" pageWidth="1100" pageHeight="850" background="none" math="0" shadow="0">
      <root>
        <mxCell id="0" />
        <mxCell id="1" parent="0" />
        <mxCell id="rn0QdvjTBMLJ68BaJbEk-1" value="" style="whiteSpace=wrap;html=1;rounded=0;shadow=0;labelBackgroundColor=none;strokeColor=#000000;strokeWidth=1;fillColor=none;fontFamily=Verdana;fontSize=12;fontColor=#000000;align=center;comic=1;" vertex="1" parent="1">
          <mxGeometry x="10" y="25" width="1060" height="730" as="geometry" />
        </mxCell>
        <mxCell id="rn0QdvjTBMLJ68BaJbEk-2" value="" style="whiteSpace=wrap;html=1;rounded=0;shadow=0;labelBackgroundColor=none;strokeWidth=1;fillColor=none;fontFamily=Verdana;fontSize=12;align=center;comic=1;" vertex="1" parent="1">
          <mxGeometry x="30" y="30" width="140" height="700" as="geometry" />
        </mxCell>
        <mxCell id="rn0QdvjTBMLJ68BaJbEk-5" value="Vet Clinic Name" style="whiteSpace=wrap;html=1;rounded=0;shadow=0;labelBackgroundColor=none;strokeWidth=1;fontFamily=Verdana;fontSize=28;align=center;comic=1;" vertex="1" parent="1">
          <mxGeometry x="180" y="30" width="680" height="100" as="geometry" />
        </mxCell>
        <mxCell id="rn0QdvjTBMLJ68BaJbEk-10" value="" style="whiteSpace=wrap;html=1;rounded=0;shadow=0;labelBackgroundColor=none;strokeWidth=1;fontFamily=Verdana;fontSize=28;align=center;comic=1;" vertex="1" parent="1">
          <mxGeometry x="180" y="640" width="870" height="60" as="geometry" />
        </mxCell>
        <mxCell id="rn0QdvjTBMLJ68BaJbEk-11" value="" style="verticalLabelPosition=bottom;shadow=0;dashed=0;align=center;html=1;verticalAlign=top;strokeWidth=1;shape=mxgraph.mockup.misc.help_icon;" vertex="1" parent="1">
          <mxGeometry x="730" y="654" width="32" height="32" as="geometry" />
        </mxCell>
        <mxCell id="rn0QdvjTBMLJ68BaJbEk-12" value="" style="verticalLabelPosition=bottom;shadow=0;dashed=0;align=center;html=1;verticalAlign=top;strokeWidth=1;shape=mxgraph.mockup.misc.help_icon;" vertex="1" parent="1">
          <mxGeometry x="679" y="654" width="32" height="32" as="geometry" />
        </mxCell>
        <mxCell id="rn0QdvjTBMLJ68BaJbEk-13" value="" style="verticalLabelPosition=bottom;shadow=0;dashed=0;align=center;html=1;verticalAlign=top;strokeWidth=1;shape=mxgraph.mockup.misc.help_icon;" vertex="1" parent="1">
          <mxGeometry x="778" y="654" width="32" height="32" as="geometry" />
        </mxCell>
        <mxCell id="rn0QdvjTBMLJ68BaJbEk-14" value="Cookie Policy" style="text;html=1;points=[];align=left;verticalAlign=top;spacingTop=-4;fontSize=14;fontFamily=Verdana" vertex="1" parent="1">
          <mxGeometry x="190" y="649" width="100" height="20" as="geometry" />
        </mxCell>
        <mxCell id="rn0QdvjTBMLJ68BaJbEk-15" value="Vet Accreditation, Company Registration, Copyright, Registered Address" style="text;html=1;points=[];align=left;verticalAlign=top;spacingTop=-4;fontSize=14;fontFamily=Verdana;fillColor=#f5f5f5;fontColor=#333333;strokeColor=none;" vertex="1" parent="1">
          <mxGeometry x="180" y="710" width="860" height="20" as="geometry" />
        </mxCell>
        <mxCell id="rn0QdvjTBMLJ68BaJbEk-16" value="Privacy Policy" style="text;html=1;points=[];align=left;verticalAlign=top;spacingTop=-4;fontSize=14;fontFamily=Verdana" vertex="1" parent="1">
          <mxGeometry x="190" y="669" width="100" height="20" as="geometry" />
        </mxCell>
        <mxCell id="rn0QdvjTBMLJ68BaJbEk-17" value="Terms of Use" style="text;html=1;points=[];align=left;verticalAlign=top;spacingTop=-4;fontSize=14;fontFamily=Verdana" vertex="1" parent="1">
          <mxGeometry x="370" y="649" width="100" height="20" as="geometry" />
        </mxCell>
        <mxCell id="rn0QdvjTBMLJ68BaJbEk-18" value="Complaints Policy" style="text;html=1;points=[];align=left;verticalAlign=top;spacingTop=-4;fontSize=14;fontFamily=Verdana" vertex="1" parent="1">
          <mxGeometry x="370" y="669" width="100" height="20" as="geometry" />
        </mxCell>
        <mxCell id="rn0QdvjTBMLJ68BaJbEk-19" value="&lt;div align=&quot;center&quot;&gt;&lt;font style=&quot;font-size: 14px;&quot;&gt;Hello, Jane&lt;/font&gt;&lt;/div&gt;&lt;div align=&quot;center&quot;&gt;&lt;font style=&quot;font-size: 14px;&quot;&gt;Logout&lt;/font&gt;&lt;/div&gt;" style="whiteSpace=wrap;html=1;rounded=0;shadow=0;labelBackgroundColor=none;strokeWidth=1;fontFamily=Verdana;fontSize=28;align=center;comic=1;" vertex="1" parent="1">
          <mxGeometry x="900" y="40" width="120" height="80" as="geometry" />
        </mxCell>
        <mxCell id="rn0QdvjTBMLJ68BaJbEk-20" value="LOGO" style="whiteSpace=wrap;html=1;rounded=0;shadow=0;labelBackgroundColor=none;strokeWidth=1;fontFamily=Verdana;fontSize=28;align=center;comic=1;" vertex="1" parent="1">
          <mxGeometry x="40" y="50" width="120" height="80" as="geometry" />
        </mxCell>
        <mxCell id="rn0QdvjTBMLJ68BaJbEk-21" value="Home" style="text;html=1;points=[];align=left;verticalAlign=top;spacingTop=-4;fontSize=14;fontFamily=Verdana" vertex="1" parent="1">
          <mxGeometry x="40" y="160" width="110" height="20" as="geometry" />
        </mxCell>
        <mxCell id="rn0QdvjTBMLJ68BaJbEk-22" value="About Us" style="text;html=1;points=[];align=left;verticalAlign=top;spacingTop=-4;fontSize=14;fontFamily=Verdana" vertex="1" parent="1">
          <mxGeometry x="40" y="190" width="110" height="20" as="geometry" />
        </mxCell>
        <mxCell id="rn0QdvjTBMLJ68BaJbEk-23" value="Products" style="text;html=1;points=[];align=left;verticalAlign=top;spacingTop=-4;fontSize=14;fontFamily=Verdana" vertex="1" parent="1">
          <mxGeometry x="40" y="220" width="110" height="20" as="geometry" />
        </mxCell>
        <mxCell id="rn0QdvjTBMLJ68BaJbEk-24" value="Account" style="text;html=1;points=[];align=left;verticalAlign=top;spacingTop=-4;fontSize=14;fontFamily=Verdana" vertex="1" parent="1">
          <mxGeometry x="40" y="250" width="110" height="20" as="geometry" />
        </mxCell>
        <mxCell id="rn0QdvjTBMLJ68BaJbEk-25" value="Pet Advice" style="text;html=1;points=[];align=left;verticalAlign=top;spacingTop=-4;fontSize=14;fontFamily=Verdana" vertex="1" parent="1">
          <mxGeometry x="40" y="280" width="110" height="20" as="geometry" />
        </mxCell>
        <mxCell id="rn0QdvjTBMLJ68BaJbEk-26" value="Admin" style="text;html=1;points=[];align=left;verticalAlign=top;spacingTop=-4;fontSize=14;fontFamily=Verdana" vertex="1" parent="1">
          <mxGeometry x="40" y="690" width="110" height="20" as="geometry" />
        </mxCell>
        <mxCell id="rn0QdvjTBMLJ68BaJbEk-27" value="Personal details&lt;br&gt;" style="text;html=1;points=[];align=left;verticalAlign=top;spacingTop=-4;fontSize=14;fontFamily=Verdana" vertex="1" parent="1">
          <mxGeometry x="190" y="170" width="110" height="20" as="geometry" />
        </mxCell>
        <mxCell id="rn0QdvjTBMLJ68BaJbEk-29" value="&lt;font style=&quot;font-size: 14px;&quot;&gt;Update&lt;/font&gt;" style="whiteSpace=wrap;html=1;rounded=0;shadow=0;labelBackgroundColor=none;strokeWidth=1;fontFamily=Verdana;fontSize=28;align=center;comic=1;" vertex="1" parent="1">
          <mxGeometry x="330" y="160" width="80" height="40" as="geometry" />
        </mxCell>
        <mxCell id="rn0QdvjTBMLJ68BaJbEk-30" value="Jane Doe" style="text;html=1;points=[];align=left;verticalAlign=top;spacingTop=-4;fontSize=14;fontFamily=Verdana" vertex="1" parent="1">
          <mxGeometry x="220" y="210" width="110" height="20" as="geometry" />
        </mxCell>
        <mxCell id="rn0QdvjTBMLJ68BaJbEk-31" value="janedoe@gmail.com" style="text;html=1;points=[];align=left;verticalAlign=top;spacingTop=-4;fontSize=14;fontFamily=Verdana" vertex="1" parent="1">
          <mxGeometry x="220" y="240" width="110" height="20" as="geometry" />
        </mxCell>
        <mxCell id="rn0QdvjTBMLJ68BaJbEk-32" value="Pets" style="text;html=1;points=[];align=left;verticalAlign=top;spacingTop=-4;fontSize=14;fontFamily=Verdana" vertex="1" parent="1">
          <mxGeometry x="640" y="175" width="110" height="20" as="geometry" />
        </mxCell>
        <mxCell id="rn0QdvjTBMLJ68BaJbEk-33" value="&lt;font style=&quot;font-size: 14px;&quot;&gt;Add&lt;/font&gt;" style="whiteSpace=wrap;html=1;rounded=0;shadow=0;labelBackgroundColor=none;strokeWidth=1;fontFamily=Verdana;fontSize=28;align=center;comic=1;" vertex="1" parent="1">
          <mxGeometry x="900" y="160" width="80" height="40" as="geometry" />
        </mxCell>
        <mxCell id="rn0QdvjTBMLJ68BaJbEk-34" value="Cat Doe, Burmese female cat" style="text;html=1;points=[];align=left;verticalAlign=top;spacingTop=-4;fontSize=14;fontFamily=Verdana" vertex="1" parent="1">
          <mxGeometry x="660" y="220" width="110" height="20" as="geometry" />
        </mxCell>
        <mxCell id="rn0QdvjTBMLJ68BaJbEk-35" value="&lt;font style=&quot;font-size: 14px;&quot;&gt;Update&lt;/font&gt;" style="whiteSpace=wrap;html=1;rounded=0;shadow=0;labelBackgroundColor=none;strokeWidth=1;fontFamily=Verdana;fontSize=28;align=center;comic=1;" vertex="1" parent="1">
          <mxGeometry x="900" y="210" width="80" height="40" as="geometry" />
        </mxCell>
        <mxCell id="rn0QdvjTBMLJ68BaJbEk-36" value="Order history" style="text;html=1;points=[];align=left;verticalAlign=top;spacingTop=-4;fontSize=14;fontFamily=Verdana" vertex="1" parent="1">
          <mxGeometry x="190" y="380" width="110" height="20" as="geometry" />
        </mxCell>
        <mxCell id="rn0QdvjTBMLJ68BaJbEk-38" value="01234567890" style="text;html=1;points=[];align=left;verticalAlign=top;spacingTop=-4;fontSize=14;fontFamily=Verdana" vertex="1" parent="1">
          <mxGeometry x="220" y="270" width="110" height="20" as="geometry" />
        </mxCell>
        <mxCell id="rn0QdvjTBMLJ68BaJbEk-39" value="1 Pine Street, LS24 5PN" style="text;html=1;points=[];align=left;verticalAlign=top;spacingTop=-4;fontSize=14;fontFamily=Verdana" vertex="1" parent="1">
          <mxGeometry x="220" y="300" width="110" height="20" as="geometry" />
        </mxCell>
        <mxCell id="rn0QdvjTBMLJ68BaJbEk-40" value="" style="shape=table;startSize=0;container=1;collapsible=0;childLayout=tableLayout;fontSize=16;" vertex="1" parent="1">
          <mxGeometry x="200" y="430" width="320" height="120" as="geometry" />
        </mxCell>
        <mxCell id="rn0QdvjTBMLJ68BaJbEk-45" value="" style="shape=tableRow;horizontal=0;startSize=0;swimlaneHead=0;swimlaneBody=0;strokeColor=inherit;top=0;left=0;bottom=0;right=0;collapsible=0;dropTarget=0;fillColor=none;points=[[0,0.5],[1,0.5]];portConstraint=eastwest;fontSize=16;" vertex="1" parent="rn0QdvjTBMLJ68BaJbEk-40">
          <mxGeometry width="320" height="24" as="geometry" />
        </mxCell>
        <mxCell id="rn0QdvjTBMLJ68BaJbEk-48" value="Item Ordered" style="shape=partialRectangle;html=1;whiteSpace=wrap;connectable=0;strokeColor=inherit;overflow=hidden;fillColor=none;top=0;left=0;bottom=0;right=0;pointerEvents=1;fontSize=16;" vertex="1" parent="rn0QdvjTBMLJ68BaJbEk-45">
          <mxGeometry width="106" height="24" as="geometry">
            <mxRectangle width="106" height="24" as="alternateBounds" />
          </mxGeometry>
        </mxCell>
        <mxCell id="rn0QdvjTBMLJ68BaJbEk-46" value="Date Ordered" style="shape=partialRectangle;html=1;whiteSpace=wrap;connectable=0;strokeColor=inherit;overflow=hidden;fillColor=none;top=0;left=0;bottom=0;right=0;pointerEvents=1;fontSize=16;" vertex="1" parent="rn0QdvjTBMLJ68BaJbEk-45">
          <mxGeometry x="106" width="107" height="24" as="geometry">
            <mxRectangle width="107" height="24" as="alternateBounds" />
          </mxGeometry>
        </mxCell>
        <mxCell id="rn0QdvjTBMLJ68BaJbEk-47" value="Date Collected" style="shape=partialRectangle;html=1;whiteSpace=wrap;connectable=0;strokeColor=inherit;overflow=hidden;fillColor=none;top=0;left=0;bottom=0;right=0;pointerEvents=1;fontSize=16;" vertex="1" parent="rn0QdvjTBMLJ68BaJbEk-45">
          <mxGeometry x="213" width="107" height="24" as="geometry">
            <mxRectangle width="107" height="24" as="alternateBounds" />
          </mxGeometry>
        </mxCell>
        <mxCell id="rn0QdvjTBMLJ68BaJbEk-49" value="" style="shape=tableRow;horizontal=0;startSize=0;swimlaneHead=0;swimlaneBody=0;strokeColor=inherit;top=0;left=0;bottom=0;right=0;collapsible=0;dropTarget=0;fillColor=none;points=[[0,0.5],[1,0.5]];portConstraint=eastwest;fontSize=16;" vertex="1" parent="rn0QdvjTBMLJ68BaJbEk-40">
          <mxGeometry y="24" width="320" height="48" as="geometry" />
        </mxCell>
        <mxCell id="rn0QdvjTBMLJ68BaJbEk-50" value="Cat flea treatment" style="shape=partialRectangle;html=1;whiteSpace=wrap;connectable=0;strokeColor=inherit;overflow=hidden;fillColor=none;top=0;left=0;bottom=0;right=0;pointerEvents=1;fontSize=16;" vertex="1" parent="rn0QdvjTBMLJ68BaJbEk-49">
          <mxGeometry width="106" height="48" as="geometry">
            <mxRectangle width="106" height="48" as="alternateBounds" />
          </mxGeometry>
        </mxCell>
        <mxCell id="rn0QdvjTBMLJ68BaJbEk-51" value="01/03/2023" style="shape=partialRectangle;html=1;whiteSpace=wrap;connectable=0;strokeColor=inherit;overflow=hidden;fillColor=none;top=0;left=0;bottom=0;right=0;pointerEvents=1;fontSize=16;" vertex="1" parent="rn0QdvjTBMLJ68BaJbEk-49">
          <mxGeometry x="106" width="107" height="48" as="geometry">
            <mxRectangle width="107" height="48" as="alternateBounds" />
          </mxGeometry>
        </mxCell>
        <mxCell id="rn0QdvjTBMLJ68BaJbEk-52" value="06/03/2023" style="shape=partialRectangle;html=1;whiteSpace=wrap;connectable=0;strokeColor=inherit;overflow=hidden;fillColor=none;top=0;left=0;bottom=0;right=0;pointerEvents=1;fontSize=16;" vertex="1" parent="rn0QdvjTBMLJ68BaJbEk-49">
          <mxGeometry x="213" width="107" height="48" as="geometry">
            <mxRectangle width="107" height="48" as="alternateBounds" />
          </mxGeometry>
        </mxCell>
        <mxCell id="rn0QdvjTBMLJ68BaJbEk-41" value="" style="shape=tableRow;horizontal=0;startSize=0;swimlaneHead=0;swimlaneBody=0;strokeColor=inherit;top=0;left=0;bottom=0;right=0;collapsible=0;dropTarget=0;fillColor=none;points=[[0,0.5],[1,0.5]];portConstraint=eastwest;fontSize=16;" vertex="1" parent="rn0QdvjTBMLJ68BaJbEk-40">
          <mxGeometry y="72" width="320" height="48" as="geometry" />
        </mxCell>
        <mxCell id="rn0QdvjTBMLJ68BaJbEk-42" value="Cat treats" style="shape=partialRectangle;html=1;whiteSpace=wrap;connectable=0;strokeColor=inherit;overflow=hidden;fillColor=none;top=0;left=0;bottom=0;right=0;pointerEvents=1;fontSize=16;" vertex="1" parent="rn0QdvjTBMLJ68BaJbEk-41">
          <mxGeometry width="106" height="48" as="geometry">
            <mxRectangle width="106" height="48" as="alternateBounds" />
          </mxGeometry>
        </mxCell>
        <mxCell id="rn0QdvjTBMLJ68BaJbEk-43" value="01/02/2023" style="shape=partialRectangle;html=1;whiteSpace=wrap;connectable=0;strokeColor=inherit;overflow=hidden;fillColor=none;top=0;left=0;bottom=0;right=0;pointerEvents=1;fontSize=16;" vertex="1" parent="rn0QdvjTBMLJ68BaJbEk-41">
          <mxGeometry x="106" width="107" height="48" as="geometry">
            <mxRectangle width="107" height="48" as="alternateBounds" />
          </mxGeometry>
        </mxCell>
        <mxCell id="rn0QdvjTBMLJ68BaJbEk-44" value="07/02/2023" style="shape=partialRectangle;html=1;whiteSpace=wrap;connectable=0;strokeColor=inherit;overflow=hidden;fillColor=none;top=0;left=0;bottom=0;right=0;pointerEvents=1;fontSize=16;" vertex="1" parent="rn0QdvjTBMLJ68BaJbEk-41">
          <mxGeometry x="213" width="107" height="48" as="geometry">
            <mxRectangle width="107" height="48" as="alternateBounds" />
          </mxGeometry>
        </mxCell>
        <mxCell id="rn0QdvjTBMLJ68BaJbEk-55" value="" style="shape=table;startSize=0;container=1;collapsible=0;childLayout=tableLayout;fontSize=16;" vertex="1" parent="1">
          <mxGeometry x="520" y="430" width="320" height="120" as="geometry" />
        </mxCell>
        <mxCell id="rn0QdvjTBMLJ68BaJbEk-56" value="" style="shape=tableRow;horizontal=0;startSize=0;swimlaneHead=0;swimlaneBody=0;strokeColor=inherit;top=0;left=0;bottom=0;right=0;collapsible=0;dropTarget=0;fillColor=none;points=[[0,0.5],[1,0.5]];portConstraint=eastwest;fontSize=16;" vertex="1" parent="rn0QdvjTBMLJ68BaJbEk-55">
          <mxGeometry width="320" height="24" as="geometry" />
        </mxCell>
        <mxCell id="rn0QdvjTBMLJ68BaJbEk-57" value="Order Number" style="shape=partialRectangle;html=1;whiteSpace=wrap;connectable=0;strokeColor=inherit;overflow=hidden;fillColor=none;top=0;left=0;bottom=0;right=0;pointerEvents=1;fontSize=16;" vertex="1" parent="rn0QdvjTBMLJ68BaJbEk-56">
          <mxGeometry width="106" height="24" as="geometry">
            <mxRectangle width="106" height="24" as="alternateBounds" />
          </mxGeometry>
        </mxCell>
        <mxCell id="rn0QdvjTBMLJ68BaJbEk-58" value="" style="shape=partialRectangle;html=1;whiteSpace=wrap;connectable=0;strokeColor=inherit;overflow=hidden;fillColor=none;top=0;left=0;bottom=0;right=0;pointerEvents=1;fontSize=16;" vertex="1" parent="rn0QdvjTBMLJ68BaJbEk-56">
          <mxGeometry x="106" width="107" height="24" as="geometry">
            <mxRectangle width="107" height="24" as="alternateBounds" />
          </mxGeometry>
        </mxCell>
        <mxCell id="rn0QdvjTBMLJ68BaJbEk-59" value="" style="shape=partialRectangle;html=1;whiteSpace=wrap;connectable=0;strokeColor=inherit;overflow=hidden;fillColor=none;top=0;left=0;bottom=0;right=0;pointerEvents=1;fontSize=16;" vertex="1" parent="rn0QdvjTBMLJ68BaJbEk-56">
          <mxGeometry x="213" width="107" height="24" as="geometry">
            <mxRectangle width="107" height="24" as="alternateBounds" />
          </mxGeometry>
        </mxCell>
        <mxCell id="rn0QdvjTBMLJ68BaJbEk-60" value="" style="shape=tableRow;horizontal=0;startSize=0;swimlaneHead=0;swimlaneBody=0;strokeColor=inherit;top=0;left=0;bottom=0;right=0;collapsible=0;dropTarget=0;fillColor=none;points=[[0,0.5],[1,0.5]];portConstraint=eastwest;fontSize=16;" vertex="1" parent="rn0QdvjTBMLJ68BaJbEk-55">
          <mxGeometry y="24" width="320" height="48" as="geometry" />
        </mxCell>
        <mxCell id="rn0QdvjTBMLJ68BaJbEk-61" value="12345" style="shape=partialRectangle;html=1;whiteSpace=wrap;connectable=0;strokeColor=inherit;overflow=hidden;fillColor=none;top=0;left=0;bottom=0;right=0;pointerEvents=1;fontSize=16;" vertex="1" parent="rn0QdvjTBMLJ68BaJbEk-60">
          <mxGeometry width="106" height="48" as="geometry">
            <mxRectangle width="106" height="48" as="alternateBounds" />
          </mxGeometry>
        </mxCell>
        <mxCell id="rn0QdvjTBMLJ68BaJbEk-62" value="" style="shape=partialRectangle;html=1;whiteSpace=wrap;connectable=0;strokeColor=inherit;overflow=hidden;fillColor=none;top=0;left=0;bottom=0;right=0;pointerEvents=1;fontSize=16;" vertex="1" parent="rn0QdvjTBMLJ68BaJbEk-60">
          <mxGeometry x="106" width="107" height="48" as="geometry">
            <mxRectangle width="107" height="48" as="alternateBounds" />
          </mxGeometry>
        </mxCell>
        <mxCell id="rn0QdvjTBMLJ68BaJbEk-63" value="" style="shape=partialRectangle;html=1;whiteSpace=wrap;connectable=0;strokeColor=inherit;overflow=hidden;fillColor=none;top=0;left=0;bottom=0;right=0;pointerEvents=1;fontSize=16;" vertex="1" parent="rn0QdvjTBMLJ68BaJbEk-60">
          <mxGeometry x="213" width="107" height="48" as="geometry">
            <mxRectangle width="107" height="48" as="alternateBounds" />
          </mxGeometry>
        </mxCell>
        <mxCell id="rn0QdvjTBMLJ68BaJbEk-64" value="" style="shape=tableRow;horizontal=0;startSize=0;swimlaneHead=0;swimlaneBody=0;strokeColor=inherit;top=0;left=0;bottom=0;right=0;collapsible=0;dropTarget=0;fillColor=none;points=[[0,0.5],[1,0.5]];portConstraint=eastwest;fontSize=16;" vertex="1" parent="rn0QdvjTBMLJ68BaJbEk-55">
          <mxGeometry y="72" width="320" height="48" as="geometry" />
        </mxCell>
        <mxCell id="rn0QdvjTBMLJ68BaJbEk-65" value="10345" style="shape=partialRectangle;html=1;whiteSpace=wrap;connectable=0;strokeColor=inherit;overflow=hidden;fillColor=none;top=0;left=0;bottom=0;right=0;pointerEvents=1;fontSize=16;" vertex="1" parent="rn0QdvjTBMLJ68BaJbEk-64">
          <mxGeometry width="106" height="48" as="geometry">
            <mxRectangle width="106" height="48" as="alternateBounds" />
          </mxGeometry>
        </mxCell>
        <mxCell id="rn0QdvjTBMLJ68BaJbEk-66" value="" style="shape=partialRectangle;html=1;whiteSpace=wrap;connectable=0;strokeColor=inherit;overflow=hidden;fillColor=none;top=0;left=0;bottom=0;right=0;pointerEvents=1;fontSize=16;" vertex="1" parent="rn0QdvjTBMLJ68BaJbEk-64">
          <mxGeometry x="106" width="107" height="48" as="geometry">
            <mxRectangle width="107" height="48" as="alternateBounds" />
          </mxGeometry>
        </mxCell>
        <mxCell id="rn0QdvjTBMLJ68BaJbEk-67" value="" style="shape=partialRectangle;html=1;whiteSpace=wrap;connectable=0;strokeColor=inherit;overflow=hidden;fillColor=none;top=0;left=0;bottom=0;right=0;pointerEvents=1;fontSize=16;" vertex="1" parent="rn0QdvjTBMLJ68BaJbEk-64">
          <mxGeometry x="213" width="107" height="48" as="geometry">
            <mxRectangle width="107" height="48" as="alternateBounds" />
          </mxGeometry>
        </mxCell>
        <mxCell id="rn0QdvjTBMLJ68BaJbEk-68" value="&lt;font style=&quot;font-size: 14px;&quot;&gt;Order again&lt;/font&gt;" style="whiteSpace=wrap;html=1;rounded=0;shadow=0;labelBackgroundColor=none;strokeWidth=1;fontFamily=Verdana;fontSize=28;align=center;comic=1;" vertex="1" parent="1">
          <mxGeometry x="640" y="458" width="90" height="40" as="geometry" />
        </mxCell>
        <mxCell id="rn0QdvjTBMLJ68BaJbEk-69" value="&lt;font style=&quot;font-size: 14px;&quot;&gt;Order again&lt;/font&gt;" style="whiteSpace=wrap;html=1;rounded=0;shadow=0;labelBackgroundColor=none;strokeWidth=1;fontFamily=Verdana;fontSize=28;align=center;comic=1;" vertex="1" parent="1">
          <mxGeometry x="640" y="510" width="90" height="40" as="geometry" />
        </mxCell>
      </root>
    </mxGraphModel>
  </diagram>
</mxfile>
